solid OpenSCAD_Model
  facet normal -1 0 0
    outer loop
      vertex 0 20 0
      vertex 0 26 76
      vertex 0 26 0
    endloop
  endfacet
  facet normal -1 -0 0
    outer loop
      vertex 0 26 76
      vertex 0 20 0
      vertex 0 20 76
    endloop
  endfacet
  facet normal -1 0 0
    outer loop
      vertex 0 60 0
      vertex 0 40 0
      vertex 0 60 76
    endloop
  endfacet
  facet normal -1 0 0
    outer loop
      vertex 0 40 112
      vertex 0 64 80
      vertex 0 60 76
    endloop
  endfacet
  facet normal -1 0 0
    outer loop
      vertex 0 40 112
      vertex 0 60 76
      vertex 0 40 0
    endloop
  endfacet
  facet normal -1 0 0
    outer loop
      vertex 0 64 80
      vertex 0 40 112
      vertex 0 64 112
    endloop
  endfacet
  facet normal -1 0 0
    outer loop
      vertex 0 0 76
      vertex 0 19 0
      vertex 0 0 0
    endloop
  endfacet
  facet normal -1 0 0
    outer loop
      vertex 0 19 0
      vertex 0 0 76
      vertex 0 19 112
    endloop
  endfacet
  facet normal -1 0 0
    outer loop
      vertex 0 -4 80
      vertex 0 19 112
      vertex 0 0 76
    endloop
  endfacet
  facet normal -1 -0 0
    outer loop
      vertex 0 19 112
      vertex 0 -4 80
      vertex 0 -4 112
    endloop
  endfacet
  facet normal 1 -0 0
    outer loop
      vertex 55 20 76
      vertex 55 26 0
      vertex 55 26 76
    endloop
  endfacet
  facet normal 1 0 0
    outer loop
      vertex 55 26 0
      vertex 55 20 76
      vertex 55 20 0
    endloop
  endfacet
  facet normal 1 -0 0
    outer loop
      vertex 55 40 112
      vertex 55 64 80
      vertex 55 64 112
    endloop
  endfacet
  facet normal 1 0 0
    outer loop
      vertex 55 64 80
      vertex 55 40 112
      vertex 55 60 76
    endloop
  endfacet
  facet normal 1 0 0
    outer loop
      vertex 55 40 0
      vertex 55 60 76
      vertex 55 40 112
    endloop
  endfacet
  facet normal 1 0 0
    outer loop
      vertex 55 60 76
      vertex 55 40 0
      vertex 55 60 0
    endloop
  endfacet
  facet normal 1 0 0
    outer loop
      vertex 55 19 112
      vertex 55 0 76
      vertex 55 19 0
    endloop
  endfacet
  facet normal 1 0 0
    outer loop
      vertex 55 -4 80
      vertex 55 19 112
      vertex 55 -4 112
    endloop
  endfacet
  facet normal 1 0 0
    outer loop
      vertex 55 19 112
      vertex 55 -4 80
      vertex 55 0 76
    endloop
  endfacet
  facet normal 1 0 0
    outer loop
      vertex 55 19 0
      vertex 55 0 76
      vertex 55 0 0
    endloop
  endfacet
  facet normal 0 1 -0
    outer loop
      vertex 6.375 60 0
      vertex 0 60 76
      vertex 6.375 60 76
    endloop
  endfacet
  facet normal 0 1 0
    outer loop
      vertex 0 60 76
      vertex 6.375 60 0
      vertex 0 60 0
    endloop
  endfacet
  facet normal 0 1 -0
    outer loop
      vertex 55 60 0
      vertex 48.625 60 76
      vertex 55 60 76
    endloop
  endfacet
  facet normal 0 1 0
    outer loop
      vertex 48.625 60 76
      vertex 55 60 0
      vertex 48.625 60 0
    endloop
  endfacet
  facet normal 0 1 -0
    outer loop
      vertex 13.25 60 0
      vertex 7.375 60 76
      vertex 13.25 60 76
    endloop
  endfacet
  facet normal 0 1 0
    outer loop
      vertex 7.375 60 76
      vertex 13.25 60 0
      vertex 7.375 60 0
    endloop
  endfacet
  facet normal 0 1 -0
    outer loop
      vertex 20.125 60 0
      vertex 14.25 60 76
      vertex 20.125 60 76
    endloop
  endfacet
  facet normal 0 1 0
    outer loop
      vertex 14.25 60 76
      vertex 20.125 60 0
      vertex 14.25 60 0
    endloop
  endfacet
  facet normal 0 1 -0
    outer loop
      vertex 27 60 0
      vertex 21.125 60 76
      vertex 27 60 76
    endloop
  endfacet
  facet normal 0 1 0
    outer loop
      vertex 21.125 60 76
      vertex 27 60 0
      vertex 21.125 60 0
    endloop
  endfacet
  facet normal 0 1 -0
    outer loop
      vertex 33.875 60 0
      vertex 28 60 76
      vertex 33.875 60 76
    endloop
  endfacet
  facet normal 0 1 0
    outer loop
      vertex 28 60 76
      vertex 33.875 60 0
      vertex 28 60 0
    endloop
  endfacet
  facet normal 0 1 -0
    outer loop
      vertex 40.75 60 0
      vertex 34.875 60 76
      vertex 40.75 60 76
    endloop
  endfacet
  facet normal 0 1 0
    outer loop
      vertex 34.875 60 76
      vertex 40.75 60 0
      vertex 34.875 60 0
    endloop
  endfacet
  facet normal 0 1 -0
    outer loop
      vertex 47.625 60 0
      vertex 41.75 60 76
      vertex 47.625 60 76
    endloop
  endfacet
  facet normal 0 1 0
    outer loop
      vertex 41.75 60 76
      vertex 47.625 60 0
      vertex 41.75 60 0
    endloop
  endfacet
  facet normal 0 0 -1
    outer loop
      vertex 48.625 1 0
      vertex 55 19 0
      vertex 55 0 0
    endloop
  endfacet
  facet normal 0 0 -1
    outer loop
      vertex 51 19 0
      vertex 49 26 0
      vertex 51 20 0
    endloop
  endfacet
  facet normal -0 0 -1
    outer loop
      vertex 55 19 0
      vertex 48.625 1 0
      vertex 51 19 0
    endloop
  endfacet
  facet normal 0 0 -1
    outer loop
      vertex 47.625 1 0
      vertex 51 19 0
      vertex 48.625 1 0
    endloop
  endfacet
  facet normal 0 0 -1
    outer loop
      vertex 48.625 1 0
      vertex 55 0 0
      vertex 48.625 0 0
    endloop
  endfacet
  facet normal 0 0 -1
    outer loop
      vertex 51 20 0
      vertex 55 26 0
      vertex 55 20 0
    endloop
  endfacet
  facet normal -0 0 -1
    outer loop
      vertex 55 26 0
      vertex 51 20 0
      vertex 49 26 0
    endloop
  endfacet
  facet normal 0 0 -1
    outer loop
      vertex 56 30 0
      vertex 63 40 0
      vertex 63 30 0
    endloop
  endfacet
  facet normal 0 0 -1
    outer loop
      vertex 56 30 0
      vertex 55 40 0
      vertex 63 40 0
    endloop
  endfacet
  facet normal 0 0 -1
    outer loop
      vertex 49 30 0
      vertex 55 40 0
      vertex 56 30 0
    endloop
  endfacet
  facet normal 0 0 -1
    outer loop
      vertex 40.75 59 0
      vertex 55 40 0
      vertex 49 30 0
    endloop
  endfacet
  facet normal 0 0 -1
    outer loop
      vertex 41.75 1 0
      vertex 51 19 0
      vertex 47.625 1 0
    endloop
  endfacet
  facet normal 0 0 -1
    outer loop
      vertex 40.75 1 0
      vertex 51 19 0
      vertex 41.75 1 0
    endloop
  endfacet
  facet normal 0 0 -1
    outer loop
      vertex 55 40 0
      vertex 48.625 59 0
      vertex 55 60 0
    endloop
  endfacet
  facet normal -0 0 -1
    outer loop
      vertex 55 60 0
      vertex 48.625 59 0
      vertex 48.625 60 0
    endloop
  endfacet
  facet normal 0 0 -1
    outer loop
      vertex -1 30 0
      vertex 0 40 0
      vertex 6 30 0
    endloop
  endfacet
  facet normal 0 0 -1
    outer loop
      vertex -8 40 0
      vertex -1 30 0
      vertex -8 30 0
    endloop
  endfacet
  facet normal 0 0 -1
    outer loop
      vertex -1 30 0
      vertex -8 40 0
      vertex 0 40 0
    endloop
  endfacet
  facet normal 0 0 -1
    outer loop
      vertex 0 0 0
      vertex 6.375 1 0
      vertex 6.375 0 0
    endloop
  endfacet
  facet normal 0 0 -1
    outer loop
      vertex 6.375 1 0
      vertex 6 26 0
      vertex 6.375 59 0
    endloop
  endfacet
  facet normal 0 0 -1
    outer loop
      vertex 6 30 0
      vertex 6.375 59 0
      vertex 6 26 0
    endloop
  endfacet
  facet normal 0 0 -1
    outer loop
      vertex 6.375 1 0
      vertex 4 19 0
      vertex 6 26 0
    endloop
  endfacet
  facet normal 0 0 -1
    outer loop
      vertex 0 19 0
      vertex 6.375 1 0
      vertex 0 0 0
    endloop
  endfacet
  facet normal 0 0 -1
    outer loop
      vertex 6.375 1 0
      vertex 0 19 0
      vertex 4 19 0
    endloop
  endfacet
  facet normal 0 0 -1
    outer loop
      vertex 6.375 1 0
      vertex 7.375 59 0
      vertex 7.375 1 0
    endloop
  endfacet
  facet normal -0 0 -1
    outer loop
      vertex 7.375 59 0
      vertex 6.375 1 0
      vertex 6.375 59 0
    endloop
  endfacet
  facet normal 0 0 -1
    outer loop
      vertex 7.375 1 0
      vertex 13.25 1 0
      vertex 13.25 0 0
    endloop
  endfacet
  facet normal 0 0 -1
    outer loop
      vertex 13.25 1 0
      vertex 7.375 1 0
      vertex 13.25 59 0
    endloop
  endfacet
  facet normal 0 0 -1
    outer loop
      vertex 7.375 1 0
      vertex 13.25 0 0
      vertex 7.375 0 0
    endloop
  endfacet
  facet normal 0 0 -1
    outer loop
      vertex 7.375 59 0
      vertex 13.25 59 0
      vertex 7.375 1 0
    endloop
  endfacet
  facet normal 0 0 -1
    outer loop
      vertex 13.25 59 0
      vertex 7.375 59 0
      vertex 13.25 60 0
    endloop
  endfacet
  facet normal -0 0 -1
    outer loop
      vertex 13.25 60 0
      vertex 7.375 59 0
      vertex 7.375 60 0
    endloop
  endfacet
  facet normal 0 0 -1
    outer loop
      vertex 13.25 1 0
      vertex 14.25 59 0
      vertex 14.25 1 0
    endloop
  endfacet
  facet normal -0 0 -1
    outer loop
      vertex 14.25 59 0
      vertex 13.25 1 0
      vertex 13.25 59 0
    endloop
  endfacet
  facet normal 0 0 -1
    outer loop
      vertex 14.25 1 0
      vertex 20.125 1 0
      vertex 20.125 0 0
    endloop
  endfacet
  facet normal 0 0 -1
    outer loop
      vertex 20.125 1 0
      vertex 14.25 1 0
      vertex 20.125 59 0
    endloop
  endfacet
  facet normal 0 0 -1
    outer loop
      vertex 14.25 1 0
      vertex 20.125 0 0
      vertex 14.25 0 0
    endloop
  endfacet
  facet normal 0 0 -1
    outer loop
      vertex 14.25 59 0
      vertex 20.125 59 0
      vertex 14.25 1 0
    endloop
  endfacet
  facet normal 0 0 -1
    outer loop
      vertex 20.125 59 0
      vertex 14.25 59 0
      vertex 20.125 60 0
    endloop
  endfacet
  facet normal -0 0 -1
    outer loop
      vertex 20.125 60 0
      vertex 14.25 59 0
      vertex 14.25 60 0
    endloop
  endfacet
  facet normal 0 0 -1
    outer loop
      vertex 20.125 59 0
      vertex 49 30 0
      vertex 20.125 1 0
    endloop
  endfacet
  facet normal 0 0 -1
    outer loop
      vertex 49 30 0
      vertex 20.125 59 0
      vertex 21.125 59 0
    endloop
  endfacet
  facet normal 0 0 -1
    outer loop
      vertex 21.125 1 0
      vertex 27 1 0
      vertex 27 0 0
    endloop
  endfacet
  facet normal 0 0 -1
    outer loop
      vertex 20.125 1 0
      vertex 49 30 0
      vertex 21.125 1 0
    endloop
  endfacet
  facet normal 0 0 -1
    outer loop
      vertex 21.125 1 0
      vertex 27 0 0
      vertex 21.125 0 0
    endloop
  endfacet
  facet normal 0 0 -1
    outer loop
      vertex 49 30 0
      vertex 21.125 59 0
      vertex 27 59 0
    endloop
  endfacet
  facet normal 0 0 -1
    outer loop
      vertex 27 59 0
      vertex 21.125 59 0
      vertex 27 60 0
    endloop
  endfacet
  facet normal -0 0 -1
    outer loop
      vertex 27 60 0
      vertex 21.125 59 0
      vertex 21.125 60 0
    endloop
  endfacet
  facet normal -0 0 -1
    outer loop
      vertex 49 26 0
      vertex 21.125 1 0
      vertex 49 30 0
    endloop
  endfacet
  facet normal 0 0 -1
    outer loop
      vertex 49 30 0
      vertex 27 59 0
      vertex 28 59 0
    endloop
  endfacet
  facet normal 0 0 -1
    outer loop
      vertex 28 1 0
      vertex 33.875 1 0
      vertex 33.875 0 0
    endloop
  endfacet
  facet normal 0 0 -1
    outer loop
      vertex 21.125 1 0
      vertex 49 26 0
      vertex 27 1 0
    endloop
  endfacet
  facet normal 0 0 -1
    outer loop
      vertex 28 1 0
      vertex 33.875 0 0
      vertex 28 0 0
    endloop
  endfacet
  facet normal 0 0 -1
    outer loop
      vertex 49 30 0
      vertex 28 59 0
      vertex 33.875 59 0
    endloop
  endfacet
  facet normal 0 0 -1
    outer loop
      vertex 33.875 59 0
      vertex 28 59 0
      vertex 33.875 60 0
    endloop
  endfacet
  facet normal -0 0 -1
    outer loop
      vertex 33.875 60 0
      vertex 28 59 0
      vertex 28 60 0
    endloop
  endfacet
  facet normal 0 0 -1
    outer loop
      vertex 27 1 0
      vertex 49 26 0
      vertex 28 1 0
    endloop
  endfacet
  facet normal 0 0 -1
    outer loop
      vertex 49 30 0
      vertex 33.875 59 0
      vertex 34.875 59 0
    endloop
  endfacet
  facet normal 0 0 -1
    outer loop
      vertex 34.875 1 0
      vertex 40.75 1 0
      vertex 40.75 0 0
    endloop
  endfacet
  facet normal 0 0 -1
    outer loop
      vertex 28 1 0
      vertex 49 26 0
      vertex 33.875 1 0
    endloop
  endfacet
  facet normal 0 0 -1
    outer loop
      vertex 34.875 1 0
      vertex 40.75 0 0
      vertex 34.875 0 0
    endloop
  endfacet
  facet normal 0 0 -1
    outer loop
      vertex 49 30 0
      vertex 34.875 59 0
      vertex 40.75 59 0
    endloop
  endfacet
  facet normal 0 0 -1
    outer loop
      vertex 40.75 59 0
      vertex 34.875 59 0
      vertex 40.75 60 0
    endloop
  endfacet
  facet normal -0 0 -1
    outer loop
      vertex 40.75 60 0
      vertex 34.875 59 0
      vertex 34.875 60 0
    endloop
  endfacet
  facet normal -0 0 -1
    outer loop
      vertex 51 19 0
      vertex 33.875 1 0
      vertex 49 26 0
    endloop
  endfacet
  facet normal 0 0 -1
    outer loop
      vertex 55 40 0
      vertex 40.75 59 0
      vertex 41.75 59 0
    endloop
  endfacet
  facet normal 0 0 -1
    outer loop
      vertex 41.75 1 0
      vertex 47.625 1 0
      vertex 47.625 0 0
    endloop
  endfacet
  facet normal 0 0 -1
    outer loop
      vertex 33.875 1 0
      vertex 51 19 0
      vertex 34.875 1 0
    endloop
  endfacet
  facet normal 0 0 -1
    outer loop
      vertex 41.75 1 0
      vertex 47.625 0 0
      vertex 41.75 0 0
    endloop
  endfacet
  facet normal 0 0 -1
    outer loop
      vertex 55 40 0
      vertex 41.75 59 0
      vertex 47.625 59 0
    endloop
  endfacet
  facet normal 0 0 -1
    outer loop
      vertex 47.625 59 0
      vertex 41.75 59 0
      vertex 47.625 60 0
    endloop
  endfacet
  facet normal -0 0 -1
    outer loop
      vertex 47.625 60 0
      vertex 41.75 59 0
      vertex 41.75 60 0
    endloop
  endfacet
  facet normal 0 0 -1
    outer loop
      vertex 34.875 1 0
      vertex 51 19 0
      vertex 40.75 1 0
    endloop
  endfacet
  facet normal 0 0 -1
    outer loop
      vertex 55 40 0
      vertex 47.625 59 0
      vertex 48.625 59 0
    endloop
  endfacet
  facet normal 0 0 -1
    outer loop
      vertex 0 40 0
      vertex 6.375 59 0
      vertex 6 30 0
    endloop
  endfacet
  facet normal 0 0 -1
    outer loop
      vertex 0 60 0
      vertex 6.375 59 0
      vertex 0 40 0
    endloop
  endfacet
  facet normal 0 0 -1
    outer loop
      vertex 6.375 59 0
      vertex 0 60 0
      vertex 6.375 60 0
    endloop
  endfacet
  facet normal 0 0 -1
    outer loop
      vertex 4 20 0
      vertex 6 26 0
      vertex 4 19 0
    endloop
  endfacet
  facet normal 0 0 -1
    outer loop
      vertex 0 26 0
      vertex 4 20 0
      vertex 0 20 0
    endloop
  endfacet
  facet normal 0 0 -1
    outer loop
      vertex 4 20 0
      vertex 0 26 0
      vertex 6 26 0
    endloop
  endfacet
  facet normal 0 -1 0
    outer loop
      vertex 0 0 0
      vertex 6.375 0 76
      vertex 0 0 76
    endloop
  endfacet
  facet normal 0 -1 -0
    outer loop
      vertex 6.375 0 76
      vertex 0 0 0
      vertex 6.375 0 0
    endloop
  endfacet
  facet normal 0 -1 0
    outer loop
      vertex 48.625 0 0
      vertex 55 0 76
      vertex 48.625 0 76
    endloop
  endfacet
  facet normal 0 -1 -0
    outer loop
      vertex 55 0 76
      vertex 48.625 0 0
      vertex 55 0 0
    endloop
  endfacet
  facet normal 0 -1 0
    outer loop
      vertex 7.375 0 0
      vertex 13.25 0 76
      vertex 7.375 0 76
    endloop
  endfacet
  facet normal 0 -1 -0
    outer loop
      vertex 13.25 0 76
      vertex 7.375 0 0
      vertex 13.25 0 0
    endloop
  endfacet
  facet normal 0 -1 0
    outer loop
      vertex 14.25 0 0
      vertex 20.125 0 76
      vertex 14.25 0 76
    endloop
  endfacet
  facet normal 0 -1 -0
    outer loop
      vertex 20.125 0 76
      vertex 14.25 0 0
      vertex 20.125 0 0
    endloop
  endfacet
  facet normal 0 -1 0
    outer loop
      vertex 21.125 0 0
      vertex 27 0 76
      vertex 21.125 0 76
    endloop
  endfacet
  facet normal 0 -1 -0
    outer loop
      vertex 27 0 76
      vertex 21.125 0 0
      vertex 27 0 0
    endloop
  endfacet
  facet normal 0 -1 0
    outer loop
      vertex 28 0 0
      vertex 33.875 0 76
      vertex 28 0 76
    endloop
  endfacet
  facet normal 0 -1 -0
    outer loop
      vertex 33.875 0 76
      vertex 28 0 0
      vertex 33.875 0 0
    endloop
  endfacet
  facet normal 0 -1 0
    outer loop
      vertex 34.875 0 0
      vertex 40.75 0 76
      vertex 34.875 0 76
    endloop
  endfacet
  facet normal 0 -1 -0
    outer loop
      vertex 40.75 0 76
      vertex 34.875 0 0
      vertex 40.75 0 0
    endloop
  endfacet
  facet normal 0 -1 0
    outer loop
      vertex 41.75 0 0
      vertex 47.625 0 76
      vertex 41.75 0 76
    endloop
  endfacet
  facet normal 0 -1 -0
    outer loop
      vertex 47.625 0 76
      vertex 41.75 0 0
      vertex 47.625 0 0
    endloop
  endfacet
  facet normal -0 0 1
    outer loop
      vertex 48.625 59 112
      vertex 55 40 112
      vertex 55 64 112
    endloop
  endfacet
  facet normal -0 0 1
    outer loop
      vertex 47.625 59 112
      vertex 55 40 112
      vertex 48.625 59 112
    endloop
  endfacet
  facet normal 0 0 1
    outer loop
      vertex 48.625 59 112
      vertex 55 64 112
      vertex 48.625 64 112
    endloop
  endfacet
  facet normal 0 0 1
    outer loop
      vertex 67 40 112
      vertex 56 30 112
      vertex 67 30 112
    endloop
  endfacet
  facet normal -0 0 1
    outer loop
      vertex 55 40 112
      vertex 56 30 112
      vertex 67 40 112
    endloop
  endfacet
  facet normal 0 0 1
    outer loop
      vertex 56 30 112
      vertex 55 40 112
      vertex 49 30 112
    endloop
  endfacet
  facet normal -0 0 1
    outer loop
      vertex 56 26 112
      vertex 59 20 112
      vertex 59 26 112
    endloop
  endfacet
  facet normal 0 0 1
    outer loop
      vertex 56 26 112
      vertex 56 20 112
      vertex 59 20 112
    endloop
  endfacet
  facet normal 0 0 1
    outer loop
      vertex 56 26 112
      vertex 51 20 112
      vertex 56 20 112
    endloop
  endfacet
  facet normal 0 0 1
    outer loop
      vertex 51 20 112
      vertex 49 26 112
      vertex 51 19 112
    endloop
  endfacet
  facet normal -0 0 1
    outer loop
      vertex 49 26 112
      vertex 51 20 112
      vertex 56 26 112
    endloop
  endfacet
  facet normal 0 0 1
    outer loop
      vertex 48.625 1 112
      vertex 55 19 112
      vertex 51 19 112
    endloop
  endfacet
  facet normal 0 0 1
    outer loop
      vertex 33.875 1 112
      vertex 51 19 112
      vertex 49 26 112
    endloop
  endfacet
  facet normal -0 0 1
    outer loop
      vertex 41.75 59 112
      vertex 55 40 112
      vertex 47.625 59 112
    endloop
  endfacet
  facet normal -0 0 1
    outer loop
      vertex 40.75 59 112
      vertex 55 40 112
      vertex 41.75 59 112
    endloop
  endfacet
  facet normal 0 0 1
    outer loop
      vertex 55 19 112
      vertex 48.625 1 112
      vertex 55 -4 112
    endloop
  endfacet
  facet normal 0 0 1
    outer loop
      vertex 55 -4 112
      vertex 48.625 1 112
      vertex 48.625 -4 112
    endloop
  endfacet
  facet normal -0 0 1
    outer loop
      vertex -1 26 112
      vertex 4 20 112
      vertex 6 26 112
    endloop
  endfacet
  facet normal 0 0 1
    outer loop
      vertex -1 26 112
      vertex -1 20 112
      vertex 4 20 112
    endloop
  endfacet
  facet normal -0 0 1
    outer loop
      vertex -4 26 112
      vertex -1 20 112
      vertex -1 26 112
    endloop
  endfacet
  facet normal 0 0 1
    outer loop
      vertex -1 20 112
      vertex -4 26 112
      vertex -4 20 112
    endloop
  endfacet
  facet normal -0 0 1
    outer loop
      vertex 0 64 112
      vertex 6.375 59 112
      vertex 6.375 64 112
    endloop
  endfacet
  facet normal 0 0 1
    outer loop
      vertex 6.375 59 112
      vertex 6 30 112
      vertex 6.375 1 112
    endloop
  endfacet
  facet normal -0 0 1
    outer loop
      vertex 6 26 112
      vertex 6.375 1 112
      vertex 6 30 112
    endloop
  endfacet
  facet normal 0 0 1
    outer loop
      vertex 6.375 59 112
      vertex 0 64 112
      vertex 0 40 112
    endloop
  endfacet
  facet normal 0 0 1
    outer loop
      vertex 6.375 59 112
      vertex 0 40 112
      vertex 6 30 112
    endloop
  endfacet
  facet normal 0 0 1
    outer loop
      vertex 0 40 112
      vertex -1 30 112
      vertex 6 30 112
    endloop
  endfacet
  facet normal -0 0 1
    outer loop
      vertex -12 40 112
      vertex -1 30 112
      vertex 0 40 112
    endloop
  endfacet
  facet normal 0 0 1
    outer loop
      vertex -1 30 112
      vertex -12 40 112
      vertex -12 30 112
    endloop
  endfacet
  facet normal -0 0 1
    outer loop
      vertex 6.375 59 112
      vertex 7.375 1 112
      vertex 7.375 59 112
    endloop
  endfacet
  facet normal 0 0 1
    outer loop
      vertex 7.375 1 112
      vertex 6.375 59 112
      vertex 6.375 1 112
    endloop
  endfacet
  facet normal 0 0 1
    outer loop
      vertex 7.375 59 112
      vertex 13.25 59 112
      vertex 13.25 64 112
    endloop
  endfacet
  facet normal 0 0 1
    outer loop
      vertex 13.25 59 112
      vertex 7.375 59 112
      vertex 13.25 1 112
    endloop
  endfacet
  facet normal 0 0 1
    outer loop
      vertex 7.375 59 112
      vertex 13.25 64 112
      vertex 7.375 64 112
    endloop
  endfacet
  facet normal 0 0 1
    outer loop
      vertex 7.375 1 112
      vertex 13.25 1 112
      vertex 7.375 59 112
    endloop
  endfacet
  facet normal 0 0 1
    outer loop
      vertex 13.25 1 112
      vertex 7.375 1 112
      vertex 13.25 -4 112
    endloop
  endfacet
  facet normal 0 0 1
    outer loop
      vertex 13.25 -4 112
      vertex 7.375 1 112
      vertex 7.375 -4 112
    endloop
  endfacet
  facet normal -0 0 1
    outer loop
      vertex 13.25 59 112
      vertex 14.25 1 112
      vertex 14.25 59 112
    endloop
  endfacet
  facet normal 0 0 1
    outer loop
      vertex 14.25 1 112
      vertex 13.25 59 112
      vertex 13.25 1 112
    endloop
  endfacet
  facet normal 0 0 1
    outer loop
      vertex 14.25 59 112
      vertex 20.125 59 112
      vertex 20.125 64 112
    endloop
  endfacet
  facet normal 0 0 1
    outer loop
      vertex 20.125 59 112
      vertex 14.25 59 112
      vertex 20.125 1 112
    endloop
  endfacet
  facet normal 0 0 1
    outer loop
      vertex 14.25 59 112
      vertex 20.125 64 112
      vertex 14.25 64 112
    endloop
  endfacet
  facet normal 0 0 1
    outer loop
      vertex 14.25 1 112
      vertex 20.125 1 112
      vertex 14.25 59 112
    endloop
  endfacet
  facet normal 0 0 1
    outer loop
      vertex 20.125 1 112
      vertex 14.25 1 112
      vertex 20.125 -4 112
    endloop
  endfacet
  facet normal 0 0 1
    outer loop
      vertex 20.125 -4 112
      vertex 14.25 1 112
      vertex 14.25 -4 112
    endloop
  endfacet
  facet normal 0 -0 1
    outer loop
      vertex 21.125 1 112
      vertex 49 30 112
      vertex 20.125 1 112
    endloop
  endfacet
  facet normal 0 0 1
    outer loop
      vertex 49 30 112
      vertex 21.125 1 112
      vertex 49 26 112
    endloop
  endfacet
  facet normal 0 0 1
    outer loop
      vertex 21.125 59 112
      vertex 27 59 112
      vertex 27 64 112
    endloop
  endfacet
  facet normal 0 0 1
    outer loop
      vertex 20.125 1 112
      vertex 49 30 112
      vertex 20.125 59 112
    endloop
  endfacet
  facet normal 0 0 1
    outer loop
      vertex 21.125 59 112
      vertex 27 64 112
      vertex 21.125 64 112
    endloop
  endfacet
  facet normal 0 0 1
    outer loop
      vertex 49 26 112
      vertex 21.125 1 112
      vertex 27 1 112
    endloop
  endfacet
  facet normal 0 0 1
    outer loop
      vertex 27 1 112
      vertex 21.125 1 112
      vertex 27 -4 112
    endloop
  endfacet
  facet normal 0 0 1
    outer loop
      vertex 27 -4 112
      vertex 21.125 1 112
      vertex 21.125 -4 112
    endloop
  endfacet
  facet normal -0 0 1
    outer loop
      vertex 20.125 59 112
      vertex 49 30 112
      vertex 21.125 59 112
    endloop
  endfacet
  facet normal 0 0 1
    outer loop
      vertex 49 26 112
      vertex 27 1 112
      vertex 28 1 112
    endloop
  endfacet
  facet normal 0 0 1
    outer loop
      vertex 28 59 112
      vertex 33.875 59 112
      vertex 33.875 64 112
    endloop
  endfacet
  facet normal -0 0 1
    outer loop
      vertex 21.125 59 112
      vertex 49 30 112
      vertex 27 59 112
    endloop
  endfacet
  facet normal 0 0 1
    outer loop
      vertex 28 59 112
      vertex 33.875 64 112
      vertex 28 64 112
    endloop
  endfacet
  facet normal 0 0 1
    outer loop
      vertex 49 26 112
      vertex 28 1 112
      vertex 33.875 1 112
    endloop
  endfacet
  facet normal 0 0 1
    outer loop
      vertex 33.875 1 112
      vertex 28 1 112
      vertex 33.875 -4 112
    endloop
  endfacet
  facet normal 0 0 1
    outer loop
      vertex 33.875 -4 112
      vertex 28 1 112
      vertex 28 -4 112
    endloop
  endfacet
  facet normal -0 0 1
    outer loop
      vertex 27 59 112
      vertex 49 30 112
      vertex 28 59 112
    endloop
  endfacet
  facet normal 0 0 1
    outer loop
      vertex 51 19 112
      vertex 33.875 1 112
      vertex 34.875 1 112
    endloop
  endfacet
  facet normal 0 0 1
    outer loop
      vertex 34.875 59 112
      vertex 40.75 59 112
      vertex 40.75 64 112
    endloop
  endfacet
  facet normal -0 0 1
    outer loop
      vertex 28 59 112
      vertex 49 30 112
      vertex 33.875 59 112
    endloop
  endfacet
  facet normal 0 0 1
    outer loop
      vertex 34.875 59 112
      vertex 40.75 64 112
      vertex 34.875 64 112
    endloop
  endfacet
  facet normal 0 0 1
    outer loop
      vertex 51 19 112
      vertex 34.875 1 112
      vertex 40.75 1 112
    endloop
  endfacet
  facet normal 0 0 1
    outer loop
      vertex 40.75 1 112
      vertex 34.875 1 112
      vertex 40.75 -4 112
    endloop
  endfacet
  facet normal 0 0 1
    outer loop
      vertex 40.75 -4 112
      vertex 34.875 1 112
      vertex 34.875 -4 112
    endloop
  endfacet
  facet normal -0 0 1
    outer loop
      vertex 33.875 59 112
      vertex 49 30 112
      vertex 34.875 59 112
    endloop
  endfacet
  facet normal 0 0 1
    outer loop
      vertex 51 19 112
      vertex 40.75 1 112
      vertex 41.75 1 112
    endloop
  endfacet
  facet normal 0 0 1
    outer loop
      vertex 41.75 59 112
      vertex 47.625 59 112
      vertex 47.625 64 112
    endloop
  endfacet
  facet normal -0 0 1
    outer loop
      vertex 34.875 59 112
      vertex 49 30 112
      vertex 40.75 59 112
    endloop
  endfacet
  facet normal 0 0 1
    outer loop
      vertex 41.75 59 112
      vertex 47.625 64 112
      vertex 41.75 64 112
    endloop
  endfacet
  facet normal 0 0 1
    outer loop
      vertex 51 19 112
      vertex 41.75 1 112
      vertex 47.625 1 112
    endloop
  endfacet
  facet normal 0 0 1
    outer loop
      vertex 47.625 1 112
      vertex 41.75 1 112
      vertex 47.625 -4 112
    endloop
  endfacet
  facet normal 0 0 1
    outer loop
      vertex 47.625 -4 112
      vertex 41.75 1 112
      vertex 41.75 -4 112
    endloop
  endfacet
  facet normal 0 0 1
    outer loop
      vertex 55 40 112
      vertex 40.75 59 112
      vertex 49 30 112
    endloop
  endfacet
  facet normal 0 0 1
    outer loop
      vertex 51 19 112
      vertex 47.625 1 112
      vertex 48.625 1 112
    endloop
  endfacet
  facet normal -0 0 1
    outer loop
      vertex 4 19 112
      vertex 6.375 1 112
      vertex 6 26 112
    endloop
  endfacet
  facet normal 0 0 1
    outer loop
      vertex 4 19 112
      vertex 6 26 112
      vertex 4 20 112
    endloop
  endfacet
  facet normal -0 0 1
    outer loop
      vertex 0 19 112
      vertex 6.375 1 112
      vertex 4 19 112
    endloop
  endfacet
  facet normal 0 0 1
    outer loop
      vertex 6.375 1 112
      vertex 0 19 112
      vertex 0 -4 112
    endloop
  endfacet
  facet normal 0 0 1
    outer loop
      vertex 6.375 1 112
      vertex 0 -4 112
      vertex 6.375 -4 112
    endloop
  endfacet
  facet normal 0 1 -0
    outer loop
      vertex 6.375 64 80
      vertex 0 64 112
      vertex 6.375 64 112
    endloop
  endfacet
  facet normal 0 1 0
    outer loop
      vertex 0 64 112
      vertex 6.375 64 80
      vertex 0 64 80
    endloop
  endfacet
  facet normal 0 1 -0
    outer loop
      vertex 55 64 80
      vertex 48.625 64 112
      vertex 55 64 112
    endloop
  endfacet
  facet normal 0 1 0
    outer loop
      vertex 48.625 64 112
      vertex 55 64 80
      vertex 48.625 64 80
    endloop
  endfacet
  facet normal 0 1 -0
    outer loop
      vertex 13.25 64 80
      vertex 7.375 64 112
      vertex 13.25 64 112
    endloop
  endfacet
  facet normal 0 1 0
    outer loop
      vertex 7.375 64 112
      vertex 13.25 64 80
      vertex 7.375 64 80
    endloop
  endfacet
  facet normal 0 1 -0
    outer loop
      vertex 20.125 64 80
      vertex 14.25 64 112
      vertex 20.125 64 112
    endloop
  endfacet
  facet normal 0 1 0
    outer loop
      vertex 14.25 64 112
      vertex 20.125 64 80
      vertex 14.25 64 80
    endloop
  endfacet
  facet normal 0 1 -0
    outer loop
      vertex 27 64 80
      vertex 21.125 64 112
      vertex 27 64 112
    endloop
  endfacet
  facet normal 0 1 0
    outer loop
      vertex 21.125 64 112
      vertex 27 64 80
      vertex 21.125 64 80
    endloop
  endfacet
  facet normal 0 1 -0
    outer loop
      vertex 33.875 64 80
      vertex 28 64 112
      vertex 33.875 64 112
    endloop
  endfacet
  facet normal 0 1 0
    outer loop
      vertex 28 64 112
      vertex 33.875 64 80
      vertex 28 64 80
    endloop
  endfacet
  facet normal 0 1 -0
    outer loop
      vertex 40.75 64 80
      vertex 34.875 64 112
      vertex 40.75 64 112
    endloop
  endfacet
  facet normal 0 1 0
    outer loop
      vertex 34.875 64 112
      vertex 40.75 64 80
      vertex 34.875 64 80
    endloop
  endfacet
  facet normal 0 1 -0
    outer loop
      vertex 47.625 64 80
      vertex 41.75 64 112
      vertex 47.625 64 112
    endloop
  endfacet
  facet normal 0 1 0
    outer loop
      vertex 41.75 64 112
      vertex 47.625 64 80
      vertex 41.75 64 80
    endloop
  endfacet
  facet normal 0 -1 0
    outer loop
      vertex 0 -4 80
      vertex 6.375 -4 112
      vertex 0 -4 112
    endloop
  endfacet
  facet normal 0 -1 -0
    outer loop
      vertex 6.375 -4 112
      vertex 0 -4 80
      vertex 6.375 -4 80
    endloop
  endfacet
  facet normal 0 -1 0
    outer loop
      vertex 48.625 -4 80
      vertex 55 -4 112
      vertex 48.625 -4 112
    endloop
  endfacet
  facet normal 0 -1 -0
    outer loop
      vertex 55 -4 112
      vertex 48.625 -4 80
      vertex 55 -4 80
    endloop
  endfacet
  facet normal 0 -1 0
    outer loop
      vertex 7.375 -4 80
      vertex 13.25 -4 112
      vertex 7.375 -4 112
    endloop
  endfacet
  facet normal 0 -1 -0
    outer loop
      vertex 13.25 -4 112
      vertex 7.375 -4 80
      vertex 13.25 -4 80
    endloop
  endfacet
  facet normal 0 -1 0
    outer loop
      vertex 14.25 -4 80
      vertex 20.125 -4 112
      vertex 14.25 -4 112
    endloop
  endfacet
  facet normal 0 -1 -0
    outer loop
      vertex 20.125 -4 112
      vertex 14.25 -4 80
      vertex 20.125 -4 80
    endloop
  endfacet
  facet normal 0 -1 0
    outer loop
      vertex 21.125 -4 80
      vertex 27 -4 112
      vertex 21.125 -4 112
    endloop
  endfacet
  facet normal 0 -1 -0
    outer loop
      vertex 27 -4 112
      vertex 21.125 -4 80
      vertex 27 -4 80
    endloop
  endfacet
  facet normal 0 -1 0
    outer loop
      vertex 28 -4 80
      vertex 33.875 -4 112
      vertex 28 -4 112
    endloop
  endfacet
  facet normal 0 -1 -0
    outer loop
      vertex 33.875 -4 112
      vertex 28 -4 80
      vertex 33.875 -4 80
    endloop
  endfacet
  facet normal 0 -1 0
    outer loop
      vertex 34.875 -4 80
      vertex 40.75 -4 112
      vertex 34.875 -4 112
    endloop
  endfacet
  facet normal 0 -1 -0
    outer loop
      vertex 40.75 -4 112
      vertex 34.875 -4 80
      vertex 40.75 -4 80
    endloop
  endfacet
  facet normal 0 -1 0
    outer loop
      vertex 41.75 -4 80
      vertex 47.625 -4 112
      vertex 41.75 -4 112
    endloop
  endfacet
  facet normal 0 -1 -0
    outer loop
      vertex 47.625 -4 112
      vertex 41.75 -4 80
      vertex 47.625 -4 80
    endloop
  endfacet
  facet normal 0 -0.707107 -0.707107
    outer loop
      vertex 0 0 76
      vertex 6.375 -4 80
      vertex 0 -4 80
    endloop
  endfacet
  facet normal 0 -0.707107 -0.707107
    outer loop
      vertex 6.375 -4 80
      vertex 0 0 76
      vertex 6.375 0 76
    endloop
  endfacet
  facet normal 0 -0.707107 -0.707107
    outer loop
      vertex 48.625 0 76
      vertex 55 -4 80
      vertex 48.625 -4 80
    endloop
  endfacet
  facet normal 0 -0.707107 -0.707107
    outer loop
      vertex 55 -4 80
      vertex 48.625 0 76
      vertex 55 0 76
    endloop
  endfacet
  facet normal 0 -0.707107 -0.707107
    outer loop
      vertex 7.375 0 76
      vertex 13.25 -4 80
      vertex 7.375 -4 80
    endloop
  endfacet
  facet normal 0 -0.707107 -0.707107
    outer loop
      vertex 13.25 -4 80
      vertex 7.375 0 76
      vertex 13.25 0 76
    endloop
  endfacet
  facet normal 0 -0.707107 -0.707107
    outer loop
      vertex 14.25 0 76
      vertex 20.125 -4 80
      vertex 14.25 -4 80
    endloop
  endfacet
  facet normal 0 -0.707107 -0.707107
    outer loop
      vertex 20.125 -4 80
      vertex 14.25 0 76
      vertex 20.125 0 76
    endloop
  endfacet
  facet normal 0 -0.707107 -0.707107
    outer loop
      vertex 21.125 0 76
      vertex 27 -4 80
      vertex 21.125 -4 80
    endloop
  endfacet
  facet normal 0 -0.707107 -0.707107
    outer loop
      vertex 27 -4 80
      vertex 21.125 0 76
      vertex 27 0 76
    endloop
  endfacet
  facet normal 0 -0.707107 -0.707107
    outer loop
      vertex 28 0 76
      vertex 33.875 -4 80
      vertex 28 -4 80
    endloop
  endfacet
  facet normal 0 -0.707107 -0.707107
    outer loop
      vertex 33.875 -4 80
      vertex 28 0 76
      vertex 33.875 0 76
    endloop
  endfacet
  facet normal 0 -0.707107 -0.707107
    outer loop
      vertex 34.875 0 76
      vertex 40.75 -4 80
      vertex 34.875 -4 80
    endloop
  endfacet
  facet normal 0 -0.707107 -0.707107
    outer loop
      vertex 40.75 -4 80
      vertex 34.875 0 76
      vertex 40.75 0 76
    endloop
  endfacet
  facet normal 0 -0.707107 -0.707107
    outer loop
      vertex 41.75 0 76
      vertex 47.625 -4 80
      vertex 41.75 -4 80
    endloop
  endfacet
  facet normal 0 -0.707107 -0.707107
    outer loop
      vertex 47.625 -4 80
      vertex 41.75 0 76
      vertex 47.625 0 76
    endloop
  endfacet
  facet normal 0 0.707107 -0.707107
    outer loop
      vertex 6.375 60 76
      vertex 0 64 80
      vertex 6.375 64 80
    endloop
  endfacet
  facet normal 0 0.707107 -0.707107
    outer loop
      vertex 0 64 80
      vertex 6.375 60 76
      vertex 0 60 76
    endloop
  endfacet
  facet normal 0 0.707107 -0.707107
    outer loop
      vertex 55 60 76
      vertex 48.625 64 80
      vertex 55 64 80
    endloop
  endfacet
  facet normal 0 0.707107 -0.707107
    outer loop
      vertex 48.625 64 80
      vertex 55 60 76
      vertex 48.625 60 76
    endloop
  endfacet
  facet normal 0 0.707107 -0.707107
    outer loop
      vertex 13.25 60 76
      vertex 7.375 64 80
      vertex 13.25 64 80
    endloop
  endfacet
  facet normal 0 0.707107 -0.707107
    outer loop
      vertex 7.375 64 80
      vertex 13.25 60 76
      vertex 7.375 60 76
    endloop
  endfacet
  facet normal 0 0.707107 -0.707107
    outer loop
      vertex 20.125 60 76
      vertex 14.25 64 80
      vertex 20.125 64 80
    endloop
  endfacet
  facet normal 0 0.707107 -0.707107
    outer loop
      vertex 14.25 64 80
      vertex 20.125 60 76
      vertex 14.25 60 76
    endloop
  endfacet
  facet normal 0 0.707107 -0.707107
    outer loop
      vertex 27 60 76
      vertex 21.125 64 80
      vertex 27 64 80
    endloop
  endfacet
  facet normal 0 0.707107 -0.707107
    outer loop
      vertex 21.125 64 80
      vertex 27 60 76
      vertex 21.125 60 76
    endloop
  endfacet
  facet normal 0 0.707107 -0.707107
    outer loop
      vertex 33.875 60 76
      vertex 28 64 80
      vertex 33.875 64 80
    endloop
  endfacet
  facet normal 0 0.707107 -0.707107
    outer loop
      vertex 28 64 80
      vertex 33.875 60 76
      vertex 28 60 76
    endloop
  endfacet
  facet normal 0 0.707107 -0.707107
    outer loop
      vertex 40.75 60 76
      vertex 34.875 64 80
      vertex 40.75 64 80
    endloop
  endfacet
  facet normal 0 0.707107 -0.707107
    outer loop
      vertex 34.875 64 80
      vertex 40.75 60 76
      vertex 34.875 60 76
    endloop
  endfacet
  facet normal 0 0.707107 -0.707107
    outer loop
      vertex 47.625 60 76
      vertex 41.75 64 80
      vertex 47.625 64 80
    endloop
  endfacet
  facet normal 0 0.707107 -0.707107
    outer loop
      vertex 41.75 64 80
      vertex 47.625 60 76
      vertex 41.75 60 76
    endloop
  endfacet
  facet normal -1 0 0
    outer loop
      vertex -8 30 0
      vertex -8 40 76
      vertex -8 40 0
    endloop
  endfacet
  facet normal -1 -0 0
    outer loop
      vertex -8 40 76
      vertex -8 30 0
      vertex -8 30 76
    endloop
  endfacet
  facet normal 0 -1 0
    outer loop
      vertex -12 30 80
      vertex -1 30 112
      vertex -12 30 112
    endloop
  endfacet
  facet normal 0 -1 0
    outer loop
      vertex -8 30 76
      vertex -1 30 112
      vertex -12 30 80
    endloop
  endfacet
  facet normal 0 -1 0
    outer loop
      vertex -1 30 0
      vertex -8 30 76
      vertex -8 30 0
    endloop
  endfacet
  facet normal 0 -1 0
    outer loop
      vertex -8 30 76
      vertex -1 30 0
      vertex -1 30 112
    endloop
  endfacet
  facet normal 0 -1 0
    outer loop
      vertex -1 30 0
      vertex 6 30 112
      vertex -1 30 112
    endloop
  endfacet
  facet normal 0 -1 -0
    outer loop
      vertex 6 30 112
      vertex -1 30 0
      vertex 6 30 0
    endloop
  endfacet
  facet normal 0 1 0
    outer loop
      vertex 0 40 112
      vertex -12 40 80
      vertex -12 40 112
    endloop
  endfacet
  facet normal 0 1 0
    outer loop
      vertex 0 40 112
      vertex -8 40 76
      vertex -12 40 80
    endloop
  endfacet
  facet normal 0 1 -0
    outer loop
      vertex 0 40 0
      vertex -8 40 76
      vertex 0 40 112
    endloop
  endfacet
  facet normal 0 1 0
    outer loop
      vertex -8 40 76
      vertex 0 40 0
      vertex -8 40 0
    endloop
  endfacet
  facet normal -1 0 0
    outer loop
      vertex -12 30 80
      vertex -12 40 112
      vertex -12 40 80
    endloop
  endfacet
  facet normal -1 -0 0
    outer loop
      vertex -12 40 112
      vertex -12 30 80
      vertex -12 30 112
    endloop
  endfacet
  facet normal -0.707107 0 -0.707107
    outer loop
      vertex -8 30 76
      vertex -12 40 80
      vertex -8 40 76
    endloop
  endfacet
  facet normal -0.707107 -0 -0.707107
    outer loop
      vertex -12 40 80
      vertex -8 30 76
      vertex -12 30 80
    endloop
  endfacet
  facet normal 1 -0 0
    outer loop
      vertex 63 30 76
      vertex 63 40 0
      vertex 63 40 76
    endloop
  endfacet
  facet normal 1 0 0
    outer loop
      vertex 63 40 0
      vertex 63 30 76
      vertex 63 30 0
    endloop
  endfacet
  facet normal 0 1 -0
    outer loop
      vertex 67 40 80
      vertex 55 40 112
      vertex 67 40 112
    endloop
  endfacet
  facet normal 0 1 -0
    outer loop
      vertex 63 40 76
      vertex 55 40 112
      vertex 67 40 80
    endloop
  endfacet
  facet normal 0 1 0
    outer loop
      vertex 55 40 0
      vertex 63 40 76
      vertex 63 40 0
    endloop
  endfacet
  facet normal 0 1 0
    outer loop
      vertex 63 40 76
      vertex 55 40 0
      vertex 55 40 112
    endloop
  endfacet
  facet normal 0 -1 0
    outer loop
      vertex 56 30 112
      vertex 67 30 80
      vertex 67 30 112
    endloop
  endfacet
  facet normal 0 -1 0
    outer loop
      vertex 56 30 112
      vertex 63 30 76
      vertex 67 30 80
    endloop
  endfacet
  facet normal 0 -1 0
    outer loop
      vertex 56 30 0
      vertex 63 30 76
      vertex 56 30 112
    endloop
  endfacet
  facet normal 0 -1 -0
    outer loop
      vertex 63 30 76
      vertex 56 30 0
      vertex 63 30 0
    endloop
  endfacet
  facet normal 0 -1 0
    outer loop
      vertex 49 30 0
      vertex 56 30 112
      vertex 49 30 112
    endloop
  endfacet
  facet normal 0 -1 -0
    outer loop
      vertex 56 30 112
      vertex 49 30 0
      vertex 56 30 0
    endloop
  endfacet
  facet normal 1 -0 0
    outer loop
      vertex 67 30 112
      vertex 67 40 80
      vertex 67 40 112
    endloop
  endfacet
  facet normal 1 0 0
    outer loop
      vertex 67 40 80
      vertex 67 30 112
      vertex 67 30 80
    endloop
  endfacet
  facet normal 0.707107 0 -0.707107
    outer loop
      vertex 67 30 80
      vertex 63 40 76
      vertex 67 40 80
    endloop
  endfacet
  facet normal 0.707107 0 -0.707107
    outer loop
      vertex 63 40 76
      vertex 67 30 80
      vertex 63 30 76
    endloop
  endfacet
  facet normal -1 0 0
    outer loop
      vertex -4 20 80
      vertex -4 26 112
      vertex -4 26 80
    endloop
  endfacet
  facet normal -1 -0 0
    outer loop
      vertex -4 26 112
      vertex -4 20 80
      vertex -4 20 112
    endloop
  endfacet
  facet normal 0 1 0
    outer loop
      vertex -1 26 112
      vertex -4 26 80
      vertex -4 26 112
    endloop
  endfacet
  facet normal -0 1 0
    outer loop
      vertex -4 26 80
      vertex -1 26 112
      vertex -1 26 77
    endloop
  endfacet
  facet normal 0 1 0
    outer loop
      vertex 6 26 112
      vertex -1 26 77
      vertex -1 26 112
    endloop
  endfacet
  facet normal 0 1 0
    outer loop
      vertex 6 26 112
      vertex 0 26 76
      vertex -1 26 77
    endloop
  endfacet
  facet normal 0 1 -0
    outer loop
      vertex 6 26 0
      vertex 0 26 76
      vertex 6 26 112
    endloop
  endfacet
  facet normal 0 1 0
    outer loop
      vertex 0 26 76
      vertex 6 26 0
      vertex 0 26 0
    endloop
  endfacet
  facet normal 0 -1 0
    outer loop
      vertex -4 20 80
      vertex -1 20 112
      vertex -4 20 112
    endloop
  endfacet
  facet normal 0 -1 -0
    outer loop
      vertex -1 20 112
      vertex -4 20 80
      vertex -1 20 77
    endloop
  endfacet
  facet normal 0 -1 0
    outer loop
      vertex -1 20 77
      vertex 4 20 112
      vertex -1 20 112
    endloop
  endfacet
  facet normal 0 -1 0
    outer loop
      vertex 0 20 76
      vertex 4 20 112
      vertex -1 20 77
    endloop
  endfacet
  facet normal 0 -1 0
    outer loop
      vertex 4 20 0
      vertex 0 20 76
      vertex 0 20 0
    endloop
  endfacet
  facet normal 0 -1 0
    outer loop
      vertex 0 20 76
      vertex 4 20 0
      vertex 4 20 112
    endloop
  endfacet
  facet normal -0.707107 0 -0.707107
    outer loop
      vertex -1 20 77
      vertex -1 26 77
      vertex 0 26 76
    endloop
  endfacet
  facet normal -0.707107 0 -0.707107
    outer loop
      vertex -1 20 77
      vertex 0 26 76
      vertex 0 20 76
    endloop
  endfacet
  facet normal -0.707107 -0 -0.707107
    outer loop
      vertex -1 26 77
      vertex -1 20 77
      vertex -4 26 80
    endloop
  endfacet
  facet normal -0.707107 -0 -0.707107
    outer loop
      vertex -4 26 80
      vertex -1 20 77
      vertex -4 20 80
    endloop
  endfacet
  facet normal 1 -0 0
    outer loop
      vertex 59 20 112
      vertex 59 26 80
      vertex 59 26 112
    endloop
  endfacet
  facet normal 1 0 0
    outer loop
      vertex 59 26 80
      vertex 59 20 112
      vertex 59 20 80
    endloop
  endfacet
  facet normal 0 1 -0
    outer loop
      vertex 59 26 80
      vertex 56 26 112
      vertex 59 26 112
    endloop
  endfacet
  facet normal 0 1 0
    outer loop
      vertex 56 26 112
      vertex 59 26 80
      vertex 56 26 77
    endloop
  endfacet
  facet normal 0 1 -0
    outer loop
      vertex 56 26 77
      vertex 49 26 112
      vertex 56 26 112
    endloop
  endfacet
  facet normal 0 1 -0
    outer loop
      vertex 55 26 76
      vertex 49 26 112
      vertex 56 26 77
    endloop
  endfacet
  facet normal 0 1 0
    outer loop
      vertex 49 26 0
      vertex 55 26 76
      vertex 55 26 0
    endloop
  endfacet
  facet normal 0 1 0
    outer loop
      vertex 55 26 76
      vertex 49 26 0
      vertex 49 26 112
    endloop
  endfacet
  facet normal 0 -1 0
    outer loop
      vertex 56 20 112
      vertex 59 20 80
      vertex 59 20 112
    endloop
  endfacet
  facet normal -0 -1 0
    outer loop
      vertex 59 20 80
      vertex 56 20 112
      vertex 56 20 77
    endloop
  endfacet
  facet normal 0 -1 0
    outer loop
      vertex 51 20 112
      vertex 56 20 77
      vertex 56 20 112
    endloop
  endfacet
  facet normal 0 -1 0
    outer loop
      vertex 51 20 112
      vertex 55 20 76
      vertex 56 20 77
    endloop
  endfacet
  facet normal 0 -1 0
    outer loop
      vertex 51 20 0
      vertex 55 20 76
      vertex 51 20 112
    endloop
  endfacet
  facet normal 0 -1 -0
    outer loop
      vertex 55 20 76
      vertex 51 20 0
      vertex 55 20 0
    endloop
  endfacet
  facet normal 0.707107 0 -0.707107
    outer loop
      vertex 56 20 77
      vertex 56 26 77
      vertex 59 26 80
    endloop
  endfacet
  facet normal 0.707107 0 -0.707107
    outer loop
      vertex 56 20 77
      vertex 59 26 80
      vertex 59 20 80
    endloop
  endfacet
  facet normal 0.707107 0 -0.707107
    outer loop
      vertex 56 26 77
      vertex 56 20 77
      vertex 55 26 76
    endloop
  endfacet
  facet normal 0.707107 0 -0.707107
    outer loop
      vertex 55 26 76
      vertex 56 20 77
      vertex 55 20 76
    endloop
  endfacet
  facet normal 1 0 0
    outer loop
      vertex 6.375 1 112
      vertex 6.375 0 76
      vertex 6.375 1 0
    endloop
  endfacet
  facet normal 1 0 0
    outer loop
      vertex 6.375 -4 80
      vertex 6.375 1 112
      vertex 6.375 -4 112
    endloop
  endfacet
  facet normal 1 0 0
    outer loop
      vertex 6.375 1 112
      vertex 6.375 -4 80
      vertex 6.375 0 76
    endloop
  endfacet
  facet normal 1 0 0
    outer loop
      vertex 6.375 1 0
      vertex 6.375 0 76
      vertex 6.375 0 0
    endloop
  endfacet
  facet normal -1 0 0
    outer loop
      vertex 7.375 0 76
      vertex 7.375 1 0
      vertex 7.375 0 0
    endloop
  endfacet
  facet normal -1 0 0
    outer loop
      vertex 7.375 1 0
      vertex 7.375 0 76
      vertex 7.375 1 112
    endloop
  endfacet
  facet normal -1 0 0
    outer loop
      vertex 7.375 -4 80
      vertex 7.375 1 112
      vertex 7.375 0 76
    endloop
  endfacet
  facet normal -1 -0 0
    outer loop
      vertex 7.375 1 112
      vertex 7.375 -4 80
      vertex 7.375 -4 112
    endloop
  endfacet
  facet normal 0 -1 0
    outer loop
      vertex 6.375 1 0
      vertex 7.375 1 112
      vertex 6.375 1 112
    endloop
  endfacet
  facet normal 0 -1 -0
    outer loop
      vertex 7.375 1 112
      vertex 6.375 1 0
      vertex 7.375 1 0
    endloop
  endfacet
  facet normal 1 -0 0
    outer loop
      vertex 6.375 59 112
      vertex 6.375 64 80
      vertex 6.375 64 112
    endloop
  endfacet
  facet normal 1 0 0
    outer loop
      vertex 6.375 64 80
      vertex 6.375 59 112
      vertex 6.375 60 76
    endloop
  endfacet
  facet normal 1 0 0
    outer loop
      vertex 6.375 59 0
      vertex 6.375 60 76
      vertex 6.375 59 112
    endloop
  endfacet
  facet normal 1 0 0
    outer loop
      vertex 6.375 60 76
      vertex 6.375 59 0
      vertex 6.375 60 0
    endloop
  endfacet
  facet normal -1 0 0
    outer loop
      vertex 7.375 60 0
      vertex 7.375 59 0
      vertex 7.375 60 76
    endloop
  endfacet
  facet normal -1 0 0
    outer loop
      vertex 7.375 59 112
      vertex 7.375 64 80
      vertex 7.375 60 76
    endloop
  endfacet
  facet normal -1 0 0
    outer loop
      vertex 7.375 64 80
      vertex 7.375 59 112
      vertex 7.375 64 112
    endloop
  endfacet
  facet normal -1 0 0
    outer loop
      vertex 7.375 59 112
      vertex 7.375 60 76
      vertex 7.375 59 0
    endloop
  endfacet
  facet normal 0 1 -0
    outer loop
      vertex 7.375 59 0
      vertex 6.375 59 112
      vertex 7.375 59 112
    endloop
  endfacet
  facet normal 0 1 0
    outer loop
      vertex 6.375 59 112
      vertex 7.375 59 0
      vertex 6.375 59 0
    endloop
  endfacet
  facet normal 1 0 0
    outer loop
      vertex 13.25 1 112
      vertex 13.25 0 76
      vertex 13.25 1 0
    endloop
  endfacet
  facet normal 1 0 0
    outer loop
      vertex 13.25 -4 80
      vertex 13.25 1 112
      vertex 13.25 -4 112
    endloop
  endfacet
  facet normal 1 0 0
    outer loop
      vertex 13.25 1 112
      vertex 13.25 -4 80
      vertex 13.25 0 76
    endloop
  endfacet
  facet normal 1 0 0
    outer loop
      vertex 13.25 1 0
      vertex 13.25 0 76
      vertex 13.25 0 0
    endloop
  endfacet
  facet normal -1 0 0
    outer loop
      vertex 14.25 0 76
      vertex 14.25 1 0
      vertex 14.25 0 0
    endloop
  endfacet
  facet normal -1 0 0
    outer loop
      vertex 14.25 1 0
      vertex 14.25 0 76
      vertex 14.25 1 112
    endloop
  endfacet
  facet normal -1 0 0
    outer loop
      vertex 14.25 -4 80
      vertex 14.25 1 112
      vertex 14.25 0 76
    endloop
  endfacet
  facet normal -1 -0 0
    outer loop
      vertex 14.25 1 112
      vertex 14.25 -4 80
      vertex 14.25 -4 112
    endloop
  endfacet
  facet normal 0 -1 0
    outer loop
      vertex 13.25 1 0
      vertex 14.25 1 112
      vertex 13.25 1 112
    endloop
  endfacet
  facet normal 0 -1 -0
    outer loop
      vertex 14.25 1 112
      vertex 13.25 1 0
      vertex 14.25 1 0
    endloop
  endfacet
  facet normal 1 -0 0
    outer loop
      vertex 13.25 59 112
      vertex 13.25 64 80
      vertex 13.25 64 112
    endloop
  endfacet
  facet normal 1 0 0
    outer loop
      vertex 13.25 64 80
      vertex 13.25 59 112
      vertex 13.25 60 76
    endloop
  endfacet
  facet normal 1 0 0
    outer loop
      vertex 13.25 59 0
      vertex 13.25 60 76
      vertex 13.25 59 112
    endloop
  endfacet
  facet normal 1 0 0
    outer loop
      vertex 13.25 60 76
      vertex 13.25 59 0
      vertex 13.25 60 0
    endloop
  endfacet
  facet normal -1 0 0
    outer loop
      vertex 14.25 60 0
      vertex 14.25 59 0
      vertex 14.25 60 76
    endloop
  endfacet
  facet normal -1 0 0
    outer loop
      vertex 14.25 59 112
      vertex 14.25 64 80
      vertex 14.25 60 76
    endloop
  endfacet
  facet normal -1 0 0
    outer loop
      vertex 14.25 64 80
      vertex 14.25 59 112
      vertex 14.25 64 112
    endloop
  endfacet
  facet normal -1 0 0
    outer loop
      vertex 14.25 59 112
      vertex 14.25 60 76
      vertex 14.25 59 0
    endloop
  endfacet
  facet normal 0 1 -0
    outer loop
      vertex 14.25 59 0
      vertex 13.25 59 112
      vertex 14.25 59 112
    endloop
  endfacet
  facet normal 0 1 0
    outer loop
      vertex 13.25 59 112
      vertex 14.25 59 0
      vertex 13.25 59 0
    endloop
  endfacet
  facet normal 1 0 0
    outer loop
      vertex 20.125 1 112
      vertex 20.125 0 76
      vertex 20.125 1 0
    endloop
  endfacet
  facet normal 1 0 0
    outer loop
      vertex 20.125 -4 80
      vertex 20.125 1 112
      vertex 20.125 -4 112
    endloop
  endfacet
  facet normal 1 0 0
    outer loop
      vertex 20.125 1 112
      vertex 20.125 -4 80
      vertex 20.125 0 76
    endloop
  endfacet
  facet normal 1 0 0
    outer loop
      vertex 20.125 1 0
      vertex 20.125 0 76
      vertex 20.125 0 0
    endloop
  endfacet
  facet normal -1 0 0
    outer loop
      vertex 21.125 0 76
      vertex 21.125 1 0
      vertex 21.125 0 0
    endloop
  endfacet
  facet normal -1 0 0
    outer loop
      vertex 21.125 1 0
      vertex 21.125 0 76
      vertex 21.125 1 112
    endloop
  endfacet
  facet normal -1 0 0
    outer loop
      vertex 21.125 -4 80
      vertex 21.125 1 112
      vertex 21.125 0 76
    endloop
  endfacet
  facet normal -1 -0 0
    outer loop
      vertex 21.125 1 112
      vertex 21.125 -4 80
      vertex 21.125 -4 112
    endloop
  endfacet
  facet normal 0 -1 0
    outer loop
      vertex 20.125 1 0
      vertex 21.125 1 112
      vertex 20.125 1 112
    endloop
  endfacet
  facet normal 0 -1 -0
    outer loop
      vertex 21.125 1 112
      vertex 20.125 1 0
      vertex 21.125 1 0
    endloop
  endfacet
  facet normal 1 -0 0
    outer loop
      vertex 20.125 59 112
      vertex 20.125 64 80
      vertex 20.125 64 112
    endloop
  endfacet
  facet normal 1 0 0
    outer loop
      vertex 20.125 64 80
      vertex 20.125 59 112
      vertex 20.125 60 76
    endloop
  endfacet
  facet normal 1 0 0
    outer loop
      vertex 20.125 59 0
      vertex 20.125 60 76
      vertex 20.125 59 112
    endloop
  endfacet
  facet normal 1 0 0
    outer loop
      vertex 20.125 60 76
      vertex 20.125 59 0
      vertex 20.125 60 0
    endloop
  endfacet
  facet normal -1 0 0
    outer loop
      vertex 21.125 60 0
      vertex 21.125 59 0
      vertex 21.125 60 76
    endloop
  endfacet
  facet normal -1 0 0
    outer loop
      vertex 21.125 59 112
      vertex 21.125 64 80
      vertex 21.125 60 76
    endloop
  endfacet
  facet normal -1 0 0
    outer loop
      vertex 21.125 64 80
      vertex 21.125 59 112
      vertex 21.125 64 112
    endloop
  endfacet
  facet normal -1 0 0
    outer loop
      vertex 21.125 59 112
      vertex 21.125 60 76
      vertex 21.125 59 0
    endloop
  endfacet
  facet normal 0 1 -0
    outer loop
      vertex 21.125 59 0
      vertex 20.125 59 112
      vertex 21.125 59 112
    endloop
  endfacet
  facet normal 0 1 0
    outer loop
      vertex 20.125 59 112
      vertex 21.125 59 0
      vertex 20.125 59 0
    endloop
  endfacet
  facet normal 1 0 0
    outer loop
      vertex 27 1 112
      vertex 27 0 76
      vertex 27 1 0
    endloop
  endfacet
  facet normal 1 0 0
    outer loop
      vertex 27 -4 80
      vertex 27 1 112
      vertex 27 -4 112
    endloop
  endfacet
  facet normal 1 0 0
    outer loop
      vertex 27 1 112
      vertex 27 -4 80
      vertex 27 0 76
    endloop
  endfacet
  facet normal 1 0 0
    outer loop
      vertex 27 1 0
      vertex 27 0 76
      vertex 27 0 0
    endloop
  endfacet
  facet normal -1 0 0
    outer loop
      vertex 28 0 76
      vertex 28 1 0
      vertex 28 0 0
    endloop
  endfacet
  facet normal -1 0 0
    outer loop
      vertex 28 1 0
      vertex 28 0 76
      vertex 28 1 112
    endloop
  endfacet
  facet normal -1 0 0
    outer loop
      vertex 28 -4 80
      vertex 28 1 112
      vertex 28 0 76
    endloop
  endfacet
  facet normal -1 -0 0
    outer loop
      vertex 28 1 112
      vertex 28 -4 80
      vertex 28 -4 112
    endloop
  endfacet
  facet normal 0 -1 0
    outer loop
      vertex 27 1 0
      vertex 28 1 112
      vertex 27 1 112
    endloop
  endfacet
  facet normal 0 -1 -0
    outer loop
      vertex 28 1 112
      vertex 27 1 0
      vertex 28 1 0
    endloop
  endfacet
  facet normal 1 -0 0
    outer loop
      vertex 27 59 112
      vertex 27 64 80
      vertex 27 64 112
    endloop
  endfacet
  facet normal 1 0 0
    outer loop
      vertex 27 64 80
      vertex 27 59 112
      vertex 27 60 76
    endloop
  endfacet
  facet normal 1 0 0
    outer loop
      vertex 27 59 0
      vertex 27 60 76
      vertex 27 59 112
    endloop
  endfacet
  facet normal 1 0 0
    outer loop
      vertex 27 60 76
      vertex 27 59 0
      vertex 27 60 0
    endloop
  endfacet
  facet normal -1 0 0
    outer loop
      vertex 28 60 0
      vertex 28 59 0
      vertex 28 60 76
    endloop
  endfacet
  facet normal -1 0 0
    outer loop
      vertex 28 59 112
      vertex 28 64 80
      vertex 28 60 76
    endloop
  endfacet
  facet normal -1 0 0
    outer loop
      vertex 28 64 80
      vertex 28 59 112
      vertex 28 64 112
    endloop
  endfacet
  facet normal -1 0 0
    outer loop
      vertex 28 59 112
      vertex 28 60 76
      vertex 28 59 0
    endloop
  endfacet
  facet normal 0 1 -0
    outer loop
      vertex 28 59 0
      vertex 27 59 112
      vertex 28 59 112
    endloop
  endfacet
  facet normal 0 1 0
    outer loop
      vertex 27 59 112
      vertex 28 59 0
      vertex 27 59 0
    endloop
  endfacet
  facet normal 1 0 0
    outer loop
      vertex 33.875 1 112
      vertex 33.875 0 76
      vertex 33.875 1 0
    endloop
  endfacet
  facet normal 1 0 0
    outer loop
      vertex 33.875 -4 80
      vertex 33.875 1 112
      vertex 33.875 -4 112
    endloop
  endfacet
  facet normal 1 0 0
    outer loop
      vertex 33.875 1 112
      vertex 33.875 -4 80
      vertex 33.875 0 76
    endloop
  endfacet
  facet normal 1 0 0
    outer loop
      vertex 33.875 1 0
      vertex 33.875 0 76
      vertex 33.875 0 0
    endloop
  endfacet
  facet normal -1 0 0
    outer loop
      vertex 34.875 0 76
      vertex 34.875 1 0
      vertex 34.875 0 0
    endloop
  endfacet
  facet normal -1 0 0
    outer loop
      vertex 34.875 1 0
      vertex 34.875 0 76
      vertex 34.875 1 112
    endloop
  endfacet
  facet normal -1 0 0
    outer loop
      vertex 34.875 -4 80
      vertex 34.875 1 112
      vertex 34.875 0 76
    endloop
  endfacet
  facet normal -1 -0 0
    outer loop
      vertex 34.875 1 112
      vertex 34.875 -4 80
      vertex 34.875 -4 112
    endloop
  endfacet
  facet normal 0 -1 0
    outer loop
      vertex 33.875 1 0
      vertex 34.875 1 112
      vertex 33.875 1 112
    endloop
  endfacet
  facet normal 0 -1 -0
    outer loop
      vertex 34.875 1 112
      vertex 33.875 1 0
      vertex 34.875 1 0
    endloop
  endfacet
  facet normal 1 -0 0
    outer loop
      vertex 33.875 59 112
      vertex 33.875 64 80
      vertex 33.875 64 112
    endloop
  endfacet
  facet normal 1 0 0
    outer loop
      vertex 33.875 64 80
      vertex 33.875 59 112
      vertex 33.875 60 76
    endloop
  endfacet
  facet normal 1 0 0
    outer loop
      vertex 33.875 59 0
      vertex 33.875 60 76
      vertex 33.875 59 112
    endloop
  endfacet
  facet normal 1 0 0
    outer loop
      vertex 33.875 60 76
      vertex 33.875 59 0
      vertex 33.875 60 0
    endloop
  endfacet
  facet normal -1 0 0
    outer loop
      vertex 34.875 60 0
      vertex 34.875 59 0
      vertex 34.875 60 76
    endloop
  endfacet
  facet normal -1 0 0
    outer loop
      vertex 34.875 59 112
      vertex 34.875 64 80
      vertex 34.875 60 76
    endloop
  endfacet
  facet normal -1 0 0
    outer loop
      vertex 34.875 64 80
      vertex 34.875 59 112
      vertex 34.875 64 112
    endloop
  endfacet
  facet normal -1 0 0
    outer loop
      vertex 34.875 59 112
      vertex 34.875 60 76
      vertex 34.875 59 0
    endloop
  endfacet
  facet normal 0 1 -0
    outer loop
      vertex 34.875 59 0
      vertex 33.875 59 112
      vertex 34.875 59 112
    endloop
  endfacet
  facet normal 0 1 0
    outer loop
      vertex 33.875 59 112
      vertex 34.875 59 0
      vertex 33.875 59 0
    endloop
  endfacet
  facet normal 1 0 0
    outer loop
      vertex 40.75 1 112
      vertex 40.75 0 76
      vertex 40.75 1 0
    endloop
  endfacet
  facet normal 1 0 0
    outer loop
      vertex 40.75 -4 80
      vertex 40.75 1 112
      vertex 40.75 -4 112
    endloop
  endfacet
  facet normal 1 0 0
    outer loop
      vertex 40.75 1 112
      vertex 40.75 -4 80
      vertex 40.75 0 76
    endloop
  endfacet
  facet normal 1 0 0
    outer loop
      vertex 40.75 1 0
      vertex 40.75 0 76
      vertex 40.75 0 0
    endloop
  endfacet
  facet normal -1 0 0
    outer loop
      vertex 41.75 0 76
      vertex 41.75 1 0
      vertex 41.75 0 0
    endloop
  endfacet
  facet normal -1 0 0
    outer loop
      vertex 41.75 1 0
      vertex 41.75 0 76
      vertex 41.75 1 112
    endloop
  endfacet
  facet normal -1 0 0
    outer loop
      vertex 41.75 -4 80
      vertex 41.75 1 112
      vertex 41.75 0 76
    endloop
  endfacet
  facet normal -1 -0 0
    outer loop
      vertex 41.75 1 112
      vertex 41.75 -4 80
      vertex 41.75 -4 112
    endloop
  endfacet
  facet normal 0 -1 0
    outer loop
      vertex 40.75 1 0
      vertex 41.75 1 112
      vertex 40.75 1 112
    endloop
  endfacet
  facet normal 0 -1 -0
    outer loop
      vertex 41.75 1 112
      vertex 40.75 1 0
      vertex 41.75 1 0
    endloop
  endfacet
  facet normal 1 -0 0
    outer loop
      vertex 40.75 59 112
      vertex 40.75 64 80
      vertex 40.75 64 112
    endloop
  endfacet
  facet normal 1 0 0
    outer loop
      vertex 40.75 64 80
      vertex 40.75 59 112
      vertex 40.75 60 76
    endloop
  endfacet
  facet normal 1 0 0
    outer loop
      vertex 40.75 59 0
      vertex 40.75 60 76
      vertex 40.75 59 112
    endloop
  endfacet
  facet normal 1 0 0
    outer loop
      vertex 40.75 60 76
      vertex 40.75 59 0
      vertex 40.75 60 0
    endloop
  endfacet
  facet normal -1 0 0
    outer loop
      vertex 41.75 60 0
      vertex 41.75 59 0
      vertex 41.75 60 76
    endloop
  endfacet
  facet normal -1 0 0
    outer loop
      vertex 41.75 59 112
      vertex 41.75 64 80
      vertex 41.75 60 76
    endloop
  endfacet
  facet normal -1 0 0
    outer loop
      vertex 41.75 64 80
      vertex 41.75 59 112
      vertex 41.75 64 112
    endloop
  endfacet
  facet normal -1 0 0
    outer loop
      vertex 41.75 59 112
      vertex 41.75 60 76
      vertex 41.75 59 0
    endloop
  endfacet
  facet normal 0 1 -0
    outer loop
      vertex 41.75 59 0
      vertex 40.75 59 112
      vertex 41.75 59 112
    endloop
  endfacet
  facet normal 0 1 0
    outer loop
      vertex 40.75 59 112
      vertex 41.75 59 0
      vertex 40.75 59 0
    endloop
  endfacet
  facet normal 1 0 0
    outer loop
      vertex 47.625 1 112
      vertex 47.625 0 76
      vertex 47.625 1 0
    endloop
  endfacet
  facet normal 1 0 0
    outer loop
      vertex 47.625 -4 80
      vertex 47.625 1 112
      vertex 47.625 -4 112
    endloop
  endfacet
  facet normal 1 0 0
    outer loop
      vertex 47.625 1 112
      vertex 47.625 -4 80
      vertex 47.625 0 76
    endloop
  endfacet
  facet normal 1 0 0
    outer loop
      vertex 47.625 1 0
      vertex 47.625 0 76
      vertex 47.625 0 0
    endloop
  endfacet
  facet normal -1 0 0
    outer loop
      vertex 48.625 0 76
      vertex 48.625 1 0
      vertex 48.625 0 0
    endloop
  endfacet
  facet normal -1 0 0
    outer loop
      vertex 48.625 1 0
      vertex 48.625 0 76
      vertex 48.625 1 112
    endloop
  endfacet
  facet normal -1 0 0
    outer loop
      vertex 48.625 -4 80
      vertex 48.625 1 112
      vertex 48.625 0 76
    endloop
  endfacet
  facet normal -1 -0 0
    outer loop
      vertex 48.625 1 112
      vertex 48.625 -4 80
      vertex 48.625 -4 112
    endloop
  endfacet
  facet normal 0 -1 0
    outer loop
      vertex 47.625 1 0
      vertex 48.625 1 112
      vertex 47.625 1 112
    endloop
  endfacet
  facet normal 0 -1 -0
    outer loop
      vertex 48.625 1 112
      vertex 47.625 1 0
      vertex 48.625 1 0
    endloop
  endfacet
  facet normal 1 -0 0
    outer loop
      vertex 47.625 59 112
      vertex 47.625 64 80
      vertex 47.625 64 112
    endloop
  endfacet
  facet normal 1 0 0
    outer loop
      vertex 47.625 64 80
      vertex 47.625 59 112
      vertex 47.625 60 76
    endloop
  endfacet
  facet normal 1 0 0
    outer loop
      vertex 47.625 59 0
      vertex 47.625 60 76
      vertex 47.625 59 112
    endloop
  endfacet
  facet normal 1 0 0
    outer loop
      vertex 47.625 60 76
      vertex 47.625 59 0
      vertex 47.625 60 0
    endloop
  endfacet
  facet normal -1 0 0
    outer loop
      vertex 48.625 60 0
      vertex 48.625 59 0
      vertex 48.625 60 76
    endloop
  endfacet
  facet normal -1 0 0
    outer loop
      vertex 48.625 59 112
      vertex 48.625 64 80
      vertex 48.625 60 76
    endloop
  endfacet
  facet normal -1 0 0
    outer loop
      vertex 48.625 64 80
      vertex 48.625 59 112
      vertex 48.625 64 112
    endloop
  endfacet
  facet normal -1 0 0
    outer loop
      vertex 48.625 59 112
      vertex 48.625 60 76
      vertex 48.625 59 0
    endloop
  endfacet
  facet normal 0 1 -0
    outer loop
      vertex 48.625 59 0
      vertex 47.625 59 112
      vertex 48.625 59 112
    endloop
  endfacet
  facet normal 0 1 0
    outer loop
      vertex 47.625 59 112
      vertex 48.625 59 0
      vertex 47.625 59 0
    endloop
  endfacet
  facet normal -1 0 0
    outer loop
      vertex 4 19 0
      vertex 4 20 112
      vertex 4 20 0
    endloop
  endfacet
  facet normal -1 -0 0
    outer loop
      vertex 4 20 112
      vertex 4 19 0
      vertex 4 19 112
    endloop
  endfacet
  facet normal 0 1 -0
    outer loop
      vertex 4 19 0
      vertex 0 19 112
      vertex 4 19 112
    endloop
  endfacet
  facet normal 0 1 0
    outer loop
      vertex 0 19 112
      vertex 4 19 0
      vertex 0 19 0
    endloop
  endfacet
  facet normal -1 0 0
    outer loop
      vertex 6 26 0
      vertex 6 30 112
      vertex 6 30 0
    endloop
  endfacet
  facet normal -1 -0 0
    outer loop
      vertex 6 30 112
      vertex 6 26 0
      vertex 6 26 112
    endloop
  endfacet
  facet normal 1 -0 0
    outer loop
      vertex 51 19 112
      vertex 51 20 0
      vertex 51 20 112
    endloop
  endfacet
  facet normal 1 0 0
    outer loop
      vertex 51 20 0
      vertex 51 19 112
      vertex 51 19 0
    endloop
  endfacet
  facet normal 0 1 -0
    outer loop
      vertex 55 19 0
      vertex 51 19 112
      vertex 55 19 112
    endloop
  endfacet
  facet normal 0 1 0
    outer loop
      vertex 51 19 112
      vertex 55 19 0
      vertex 51 19 0
    endloop
  endfacet
  facet normal 1 -0 0
    outer loop
      vertex 49 26 112
      vertex 49 30 0
      vertex 49 30 112
    endloop
  endfacet
  facet normal 1 0 0
    outer loop
      vertex 49 30 0
      vertex 49 26 112
      vertex 49 26 0
    endloop
  endfacet
endsolid OpenSCAD_Model
